<svg version="1.1" xmlns="http://www.w3.org/2000/svg" viewBox="0 0 310.62019889937415 209" width="310.62019889937415" height="209">
  <!-- svg-source:excalidraw -->
  
  <defs>
    <style>
      @font-face {
        font-family: "Virgil";
        src: url("https://excalidraw.com/Virgil.woff2");
      }
      @font-face {
        font-family: "Cascadia";
        src: url("https://excalidraw.com/Cascadia.woff2");
      }
    </style>
  </defs>
  <g stroke-linecap="round" transform="translate(61.50853911325339 10) rotate(0 89 24)"><path d="M1.9 -0.37 L176.33 -1.84 L176.38 46.8 L-0.28 48.08" stroke="none" stroke-width="0" fill="#fa5252"></path><path d="M-1.45 1.08 C41.84 2.27, 87.66 -1.04, 176.74 -1.43 M-0.21 0.7 C68.07 -0.83, 135.99 -0.41, 178.36 0.78 M176.5 0.59 C178.02 15.66, 178.62 28.64, 176.82 46.49 M177.13 -0.73 C177.41 18.54, 178.26 34.42, 178.39 47.53 M178.19 46.91 C118.16 45, 58.95 46.16, -0.78 47.57 M178.57 48.98 C132.75 48.61, 89.75 48.34, -0.13 48.09 M1.62 49.49 C-1.27 34.61, -1.29 22.48, -1.67 0.88 M-0.5 47.22 C0.65 30.09, -0.7 13.85, -0.97 0.04" stroke="#000000" stroke-width="2" fill="none"></path></g><g stroke-linecap="round" transform="translate(61.50853911325339 151) rotate(0 89 24)"><path d="M-1.5 -1.3 L177.35 -1.59 L178.35 48.21 L-1.82 47.62" stroke="none" stroke-width="0" fill="#fa5252"></path><path d="M-1.05 -0.28 C42.95 0.86, 86.45 3.19, 178.64 1.13 M0.54 -0.24 C70.73 0.02, 141.33 0.6, 177.55 0.81 M177.03 -0.35 C176.1 18.85, 178.86 35.5, 176.82 47 M177.19 -0.13 C177.29 10.68, 179.21 21.1, 177.16 47.08 M178.08 46.66 C138.93 45.86, 99.58 47.35, -0.45 47.3 M177.58 47.73 C124.38 48.01, 69.74 49.05, 0.37 47.28 M-0.92 47.21 C1.19 32.49, -0.36 18.04, 0.2 -1.89 M-0.39 48.22 C0.56 32.47, -0.38 17.61, -0.11 0.46" stroke="#000000" stroke-width="2" fill="none"></path></g><g stroke-linecap="round" transform="translate(61.50853911325339 81) rotate(0 89 24)"><path d="M-1.3 -0.65 L176.41 0.35 L178.21 46.18 L-0.38 48.13" stroke="none" stroke-width="0" fill="#fa5252"></path><path d="M-0.28 -0.78 C45.45 -0.08, 93.65 1.58, 179.13 1.96 M-0.24 -0.13 C38.35 -1.33, 77.17 -1.4, 178.81 0.74 M177.65 -1.67 C178.69 13.22, 177.37 23.08, 177 46.43 M177.87 -0.97 C177.61 17.97, 177.38 33.2, 177.08 47.19 M176.66 47.89 C133.37 47.57, 92.12 47.62, -0.7 48.07 M177.73 48.39 C124.02 47.03, 71.46 47.63, -0.72 48.14 M-0.79 49.02 C-0.61 34.82, 0.01 22.91, -1.89 0.37 M0.22 48.81 C-0.36 30.99, 0.05 14.13, 0.46 -0.75" stroke="#000000" stroke-width="2" fill="none"></path></g><g stroke-linecap="round"><g transform="translate(248.5085391132534 171) rotate(0 25.304312370725313 -69.16679006890399)"><path d="M1.97 -0.36 C8.78 -3.06, 35.76 1.91, 43.02 -17.29 C50.28 -36.49, 52.96 -95.46, 45.54 -115.57 C38.12 -135.68, 6.19 -134.02, -1.5 -137.97 M-0.32 -3.03 C7.15 -5.16, 40.96 5.74, 48.26 -13.81 C55.57 -33.36, 51.73 -100.03, 43.49 -120.32 C35.24 -140.62, 6.71 -132.43, -1.19 -135.58" stroke="#000000" stroke-width="2" fill="none"></path></g><g transform="translate(248.5085391132534 171) rotate(0 25.304312370725313 -69.16679006890399)"><path d="M22.97 -145.6 C13.57 -140.16, 6.57 -137.56, -1.77 -135.07 M23.4 -143.69 C17.12 -142.11, 12.9 -138.16, -1.46 -133.85" stroke="#000000" stroke-width="2" fill="none"></path></g><g transform="translate(248.5085391132534 171) rotate(0 25.304312370725313 -69.16679006890399)"><path d="M21.68 -128.11 C12.92 -129.38, 6.41 -133.48, -1.77 -135.07 M22.11 -126.2 C16.34 -128.79, 12.44 -129.03, -1.46 -133.85" stroke="#000000" stroke-width="2" fill="none"></path></g></g><g stroke-linecap="round"><g transform="translate(49.50853911325339 103) rotate(0 -17.82807215891779 35.308309175223116)"><path d="M-2.06 -0.13 C-7.48 1.25, -26.78 -0.41, -31.99 10.12 C-37.21 20.64, -39.33 52.86, -33.36 63.03 C-27.38 73.2, -2.54 69.81, 3.85 71.15 M2.02 -2.68 C-3.92 -1.15, -28.63 1.43, -34.77 12.72 C-40.91 24.01, -41.25 54.98, -34.82 65.07 C-28.39 75.17, -2.24 72.22, 3.81 73.29" stroke="#000000" stroke-width="2" fill="none"></path></g><g transform="translate(49.50853911325339 103) rotate(0 -17.82807215891779 35.308309175223116)"><path d="M-15.22 78.01 C-11.73 78.64, -5.81 74.14, 2.61 73.25 M-16.28 78.42 C-11.28 78.3, -4.48 76.65, 5.29 71.67" stroke="#000000" stroke-width="2" fill="none"></path></g><g transform="translate(49.50853911325339 103) rotate(0 -17.82807215891779 35.308309175223116)"><path d="M-14.75 64.47 C-11.24 69.43, -5.47 69.28, 2.61 73.25 M-15.81 64.88 C-11.11 68.37, -4.43 70.33, 5.29 71.67" stroke="#000000" stroke-width="2" fill="none"></path></g></g></svg>